<svg xmlns="http://www.w3.org/2000/svg" width="191.157" height="32" viewBox="0 0 191.157 32">
  <g data-name="Group 129661" transform="translate(-140 -41.41)">
    <circle data-name="Ellipse 4" cx="7.772" cy="7.772" r="7.772" transform="translate(315.613 52.527)" fill="#dd4242"/>
    <circle data-name="Ellipse 79" cx="7.772" cy="7.772" r="7.772" transform="translate(140 52.527)" fill="#fff"/>
    <path data-name="Path 59607" d="M18-4.414A19.158,19.158,0,0,1,9.2-6.345,13.771,13.771,0,0,1,3.338-11.9a16.868,16.868,0,0,1-2.063-8.494,16.868,16.868,0,0,1,2.063-8.494A13.908,13.908,0,0,1,9.2-34.461,18.979,18.979,0,0,1,18-36.414a24.659,24.659,0,0,1,5.9.636,15.844,15.844,0,0,1,4.763,2.041v7.374A12.218,12.218,0,0,0,24.3-28.579a20.864,20.864,0,0,0-5.6-.68,10.61,10.61,0,0,0-4.85,1.075,8.16,8.16,0,0,0-3.358,3.095,8.853,8.853,0,0,0-1.229,4.7A8.852,8.852,0,0,0,11.7-13.808a8.973,8.973,0,0,0,6.606,2.414,8.684,8.684,0,0,0,3.907-.79V-17.1h-4.7v-5.443H29.588V-7.267A21.948,21.948,0,0,1,18-4.414Zm22.606,0a10.058,10.058,0,0,1-6.387-1.909,6.392,6.392,0,0,1-2.436-5.333,6.638,6.638,0,0,1,2.348-5.465q2.348-1.909,6.738-1.909a16.036,16.036,0,0,1,3.424.373,12.58,12.58,0,0,1,2.941.988v-.439q0-3.38-5.531-3.38A16.533,16.533,0,0,0,34.636-20v-5.311a15.349,15.349,0,0,1,3.687-1.075,26.335,26.335,0,0,1,4.741-.417q5.882,0,8.889,2.348a7.854,7.854,0,0,1,3.007,6.562V-5.072H47.717v-1.8a8.39,8.39,0,0,1-2.985,1.8A11.968,11.968,0,0,1,40.606-4.414Zm2.283-4.741A5.986,5.986,0,0,0,45.434-9.7a4.371,4.371,0,0,0,1.8-1.427v-1.844a7.514,7.514,0,0,0-4.3-1.273,3.746,3.746,0,0,0-2.37.658,2.313,2.313,0,0,0-.834,1.931,2.24,2.24,0,0,0,.812,1.844A3.651,3.651,0,0,0,42.888-9.155ZM66.636-4.414a10.058,10.058,0,0,1-6.387-1.909,6.392,6.392,0,0,1-2.436-5.333,6.638,6.638,0,0,1,2.348-5.465q2.348-1.909,6.738-1.909a16.036,16.036,0,0,1,3.424.373,12.58,12.58,0,0,1,2.941.988v-.439q0-3.38-5.531-3.38A16.533,16.533,0,0,0,60.666-20v-5.311a15.349,15.349,0,0,1,3.687-1.075,26.335,26.335,0,0,1,4.741-.417q5.882,0,8.889,2.348A7.854,7.854,0,0,1,80.99-17.89V-5.072H73.747v-1.8a8.39,8.39,0,0,1-2.985,1.8A11.968,11.968,0,0,1,66.636-4.414Zm2.283-4.741A5.986,5.986,0,0,0,71.464-9.7a4.371,4.371,0,0,0,1.8-1.427v-1.844a7.514,7.514,0,0,0-4.3-1.273,3.746,3.746,0,0,0-2.37.658,2.313,2.313,0,0,0-.834,1.931,2.24,2.24,0,0,0,.812,1.844A3.651,3.651,0,0,0,68.918-9.155Z" transform="translate(166.947 77.825)" fill="#dd4242"/>
    <path data-name="Path 59608" d="M113.93-4.414a19.158,19.158,0,0,1-8.8-1.931,13.772,13.772,0,0,1-5.86-5.553,16.868,16.868,0,0,1-2.063-8.494,16.868,16.868,0,0,1,2.063-8.494,13.908,13.908,0,0,1,5.86-5.575,18.979,18.979,0,0,1,8.8-1.953,24.659,24.659,0,0,1,5.9.636,15.844,15.844,0,0,1,4.763,2.041v7.374a12.218,12.218,0,0,0-4.368-2.217,20.864,20.864,0,0,0-5.6-.68,10.61,10.61,0,0,0-4.85,1.075,8.16,8.16,0,0,0-3.358,3.095,8.853,8.853,0,0,0-1.229,4.7,8.852,8.852,0,0,0,2.436,6.584,8.973,8.973,0,0,0,6.606,2.414,8.684,8.684,0,0,0,3.907-.79V-17.1h-4.7v-5.443h12.071V-7.267A21.948,21.948,0,0,1,113.93-4.414Zm22.606,0a10.058,10.058,0,0,1-6.387-1.909,6.392,6.392,0,0,1-2.436-5.333,6.638,6.638,0,0,1,2.348-5.465q2.348-1.909,6.738-1.909a16.036,16.036,0,0,1,3.424.373,12.58,12.58,0,0,1,2.941.988v-.439q0-3.38-5.531-3.38A16.533,16.533,0,0,0,130.567-20v-5.311a15.349,15.349,0,0,1,3.687-1.075,26.335,26.335,0,0,1,4.741-.417q5.882,0,8.889,2.348a7.854,7.854,0,0,1,3.007,6.562V-5.072h-7.243v-1.8a8.39,8.39,0,0,1-2.985,1.8A11.968,11.968,0,0,1,136.537-4.414Zm2.283-4.741a5.986,5.986,0,0,0,2.546-.549,4.371,4.371,0,0,0,1.8-1.427v-1.844a7.514,7.514,0,0,0-4.3-1.273,3.746,3.746,0,0,0-2.37.658,2.313,2.313,0,0,0-.834,1.931,2.24,2.24,0,0,0,.812,1.844A3.651,3.651,0,0,0,138.819-9.155Z" transform="translate(153.584 77.825)" fill="#fff"/>
  </g>
</svg>
